<svg width="320" height="320" viewBox="0 0 320 320" fill="none" xmlns="http://www.w3.org/2000/svg">
<path d="M152.5 4.33012C157.141 1.65063 162.859 1.65063 167.5 4.33013L291.064 75.6699C295.705 78.3494 298.564 83.3013 298.564 88.6603V231.34C298.564 236.699 295.705 241.651 291.064 244.33L167.5 315.67C162.859 318.349 157.141 318.349 152.5 315.67L28.9359 244.33C24.2949 241.651 21.4359 236.699 21.4359 231.34V88.6602C21.4359 83.3013 24.2949 78.3494 28.9359 75.6699L152.5 4.33012Z" fill="url(#paint0_linear_64_168)"/>
<path fill-rule="evenodd" clip-rule="evenodd" d="M263 112.171C263 107.796 260.753 103.752 257.101 101.556L255.737 100.736L255.73 100.732L195.73 64.6497L195.724 64.6458L190.786 61.6761C182.891 56.9284 173 62.8317 173 72.2911V77.5043V241.272V246.486C173 255.946 182.892 261.849 190.786 257.1L195.73 254.127L195.731 254.126L255.731 218.037L255.734 218.036L257.102 217.213C260.753 215.017 263 210.973 263 206.598V205.183V201.526V199.89V183.526V179.526C263 176.764 260.761 174.526 258 174.526H250.727L238.545 174.526C235.784 174.526 233.545 176.764 233.545 179.526V194.147C233.545 195.928 232.598 197.575 231.058 198.47L212.651 209.167L212.65 209.167L204.775 213.744C204.109 214.131 203.273 213.65 203.273 212.879V203.759V115.019V105.9C203.273 105.129 204.108 104.648 204.775 105.035L212.651 109.611L231.057 120.306C232.598 121.201 233.545 122.847 233.545 124.629V139.253C233.545 142.015 235.784 144.253 238.545 144.253L258 144.253C260.761 144.253 263 142.015 263 139.253V136.253V118.89V116.253V113.586V112.171ZM112.53 158.988C112.531 160.096 111.002 160.398 110.601 159.368L84.4327 92.1214C83.3009 89.2129 79.8104 88.0407 77.1525 89.6765L59.1864 100.733C55.3419 103.099 53 107.29 53 111.805V207.168C53 211.682 55.3415 215.873 59.1854 218.239L75.5302 228.3C78.8648 230.352 83.1579 227.949 83.1511 224.033L83.0757 180.447C83.0737 179.338 84.6035 179.036 85.0044 180.066L112.062 249.597C112.457 250.612 113.173 251.47 114.101 252.041L122.205 257.03C130.867 262.362 142.02 256.13 142.02 245.959V73.0205C142.02 62.8502 130.868 56.6186 122.206 61.9492L114.815 66.4981C113.334 67.4091 112.433 69.0235 112.435 70.7617L112.53 158.988Z" fill="#091021"/>
<defs>
<linearGradient id="paint0_linear_64_168" x1="160" y1="0" x2="160" y2="320" gradientUnits="userSpaceOnUse">
<stop stop-color="#997EE8"/>
<stop offset="0.9999" stop-color="#6338E4"/>
</linearGradient>
</defs>
</svg>
