<svg width="244" height="244" viewBox="0 0 244 244" fill="none" xmlns="http://www.w3.org/2000/svg">
<path d="M12.4773 196C4.15909 196 0 192.751 0 186.252C0 182.075 1.38636 176.737 4.15909 170.238C7.39394 163.74 10.6288 157.474 13.8636 151.439C22.6439 135.657 30.7311 120.34 38.125 105.486C45.5189 90.6324 52.6818 74.8505 59.6136 58.1402C62.8485 50.7134 67.7008 47 74.1705 47C81.1023 47 83.1818 51.1776 80.4091 59.5327C77.6364 66.4953 74.8636 72.7617 72.0909 78.3318C59.1515 104.79 52.6818 122.66 52.6818 131.944C52.6818 136.121 54.0682 138.674 56.8409 139.603C63.3106 134.497 68.1629 130.783 71.3977 128.463C74.6326 125.678 76.4811 124.053 76.9432 123.589C83.4129 118.483 90.5758 112.681 98.4318 106.182C106.75 99.2196 115.761 91.3287 125.466 82.5094C140.716 68.5841 153.424 61.6215 163.591 61.6215C176.068 61.6215 181.716 81.2555 179.868 104C179.405 112.819 179.405 81.1449 179.868 89.5C180.33 91.3567 180.227 126.142 180.227 129.855C180.227 133.104 180.227 137.05 180.227 141.692C180.227 146.333 183 148.654 188.545 148.654C195.015 148.654 201.023 146.798 206.568 143.084L221.818 132.64L237.068 122.893C237.992 122.428 239.61 122.196 241.92 122.196C244.693 122.196 244.693 124.285 241.92 128.463C212.807 164.668 188.777 182.771 169.83 182.771C166.133 182.771 162.436 182.075 158.739 180.682C155.504 179.29 153.193 175.344 151.807 168.846C150.42 161.883 149.496 154.456 149.034 146.565C149.034 138.674 149.034 132.64 149.034 128.463L149.727 105.486C149.727 95.7383 147.186 90.8645 142.102 90.8645C130.087 90.8645 100.511 115.698 53.375 165.364C49.678 170.006 43.9015 176.273 36.0455 184.164C28.1894 192.055 20.3333 196 12.4773 196Z" fill="url(#paint0_linear_78_50)"/>
<defs>
<linearGradient id="paint0_linear_78_50" x1="122" y1="47" x2="122" y2="196" gradientUnits="userSpaceOnUse">
<stop stop-color="#997EE8"/>
<stop offset="1" stop-color="#6338E4"/>
</linearGradient>
</defs>
</svg>
